<svg width="10" height="10" viewBox="0 0 10 10" fill="none" xmlns="http://www.w3.org/2000/svg">
<g id="icons">
<g id="user">
<path id="Vector" d="M5.00007 6C6.3786 6 7.49612 4.65685 7.49612 3C7.49612 1.34315 6.3786 0 5.00007 0C3.62155 0 2.50403 1.34315 2.50403 3C2.50403 4.65685 3.62155 6 5.00007 6Z" fill="#818181"/>
<path id="Vector_2" d="M9.89225 8.55C9.44296 7.65 8.59431 6.9 7.49605 6.45C7.19652 6.35 6.84707 6.35 6.59747 6.5C6.09826 6.8 5.59905 6.95 5 6.95C4.40095 6.95 3.90174 6.8 3.40253 6.5C3.15293 6.4 2.80348 6.35 2.50395 6.5C1.40569 6.95 0.557038 7.7 0.10775 8.6C-0.241696 9.25 0.307434 10 1.05625 10H8.94375C9.69257 10 10.2417 9.25 9.89225 8.55Z" fill="#818181"/>
</g>
</g>
</svg>
