<svg width="18" height="18" viewBox="0 0 18 18" fill="none" xmlns="http://www.w3.org/2000/svg">
<path id="burger_menu" fill-rule="evenodd" clip-rule="evenodd" d="M17.557 15.4177C18.1477 16.0084 18.1477 16.9662 17.557 17.5569C16.9662 18.1477 16.0084 18.1477 15.4177 17.5569L9.0001 11.1393L2.5825 17.5569C1.99176 18.1477 1.03399 18.1477 0.443258 17.5569C-0.147476 16.9662 -0.147476 16.0084 0.443258 15.4177L6.86087 9.0001L0.443051 2.58229C-0.147683 1.99155 -0.147684 1.03378 0.443051 0.44305C1.03378 -0.147683 1.99155 -0.147683 2.58229 0.44305L9.0001 6.86086L15.4179 0.44305C16.0087 -0.147683 16.9664 -0.147683 17.5572 0.44305C18.1479 1.03378 18.1479 1.99155 17.5572 2.58229L11.1393 9.0001L17.557 15.4177Z" fill="white"/>
</svg>
