<svg width="10" height="12" viewBox="0 0 10 12" fill="none" xmlns="http://www.w3.org/2000/svg">
<path fill-rule="evenodd" clip-rule="evenodd" d="M0 2C0 0.895431 0.895431 0 2 0H8C9.10457 0 10 0.895431 10 2V10C10 11.1046 9.10457 12 8 12H2C0.89543 12 0 11.1046 0 10V2ZM3.625 5.25H6.125C6.29076 5.25 6.44973 5.18415 6.56694 5.06694C6.68415 4.94973 6.75 4.79076 6.75 4.625C6.75 4.45924 6.68415 4.30027 6.56694 4.18306C6.44973 4.06585 6.29076 4 6.125 4H3.625C3.45924 4 3.30027 4.06585 3.18306 4.18306C3.06585 4.30027 3 4.45924 3 4.625C3 4.79076 3.06585 4.94973 3.18306 5.06694C3.30027 5.18415 3.45924 5.25 3.625 5.25ZM6.125 7.25H3.625C3.45924 7.25 3.30027 7.18415 3.18306 7.06694C3.06585 6.94973 3 6.79076 3 6.625C3 6.45924 3.06585 6.30027 3.18306 6.18306C3.30027 6.06585 3.45924 6 3.625 6H6.125C6.29076 6 6.44973 6.06585 6.56694 6.18306C6.68415 6.30027 6.75 6.45924 6.75 6.625C6.75 6.79076 6.68415 6.94973 6.56694 7.06694C6.44973 7.18415 6.29076 7.25 6.125 7.25Z" fill="#818181"/>
</svg>
